<svg xmlns="http://www.w3.org/2000/svg" width="1200" height="750" viewBox="0 0 1200 750" role="img" aria-labelledby="title desc">
  <title id="title">Cabinet finishes screen</title>
  <desc id="desc">Finish selection mockup with material swatches, hardware choices, and preview state.</desc>
  <rect width="1200" height="750" fill="#f6f8fa"/>
  <rect x="88" y="76" width="1024" height="598" rx="22" fill="#ffffff" stroke="#d8e3e8"/>
  <text x="132" y="132" font-family="Segoe UI, Arial, sans-serif" font-size="30" font-weight="800" fill="#17324d">Finishes and Hardware</text>
  <rect x="132" y="182" width="436" height="414" rx="18" fill="#f7fafb" stroke="#d8e3e8"/>
  <rect x="194" y="246" width="312" height="258" rx="14" fill="#f2d3aa" stroke="#9a6a3d" stroke-width="5"/>
  <rect x="222" y="274" width="112" height="202" rx="8" fill="#fff1d6" stroke="#af7b48" stroke-width="4"/>
  <rect x="364" y="274" width="112" height="202" rx="8" fill="#fff1d6" stroke="#af7b48" stroke-width="4"/>
  <rect x="622" y="182" width="446" height="414" rx="18" fill="#ffffff" stroke="#d8e3e8"/>
  <text x="658" y="232" font-family="Segoe UI, Arial, sans-serif" font-size="20" font-weight="800" fill="#17324d">Material Swatches</text>
  <rect x="658" y="274" width="94" height="94" rx="12" fill="#d9b88f"/>
  <rect x="782" y="274" width="94" height="94" rx="12" fill="#ffffff" stroke="#d8e3e8"/>
  <rect x="906" y="274" width="94" height="94" rx="12" fill="#475569"/>
  <rect x="658" y="402" width="94" height="94" rx="12" fill="#8b5e34"/>
  <rect x="782" y="402" width="94" height="94" rx="12" fill="#6f7f85"/>
  <rect x="906" y="402" width="94" height="94" rx="12" fill="#c9a66b"/>
  <circle cx="705" cy="321" r="22" fill="none" stroke="#0f766e" stroke-width="6"/>
  <text x="658" y="550" font-family="Segoe UI, Arial, sans-serif" font-size="16" font-weight="700" fill="#637282">Brushed brass pull</text>
  <rect x="812" y="532" width="156" height="34" rx="17" fill="#e8f8f2"/>
  <text x="846" y="554" font-family="Segoe UI, Arial, sans-serif" font-size="15" font-weight="800" fill="#0f766e">Selected</text>
</svg>