<svg xmlns="http://www.w3.org/2000/svg" width="1200" height="750" viewBox="0 0 1200 750" role="img" aria-labelledby="title desc">
  <title id="title">Online cabinet configurator</title>
  <desc id="desc">Configurator mockup with cabinet preview, option controls, and quote summary.</desc>
  <defs>
    <linearGradient id="cabBg" x1="0" y1="0" x2="1" y2="1">
      <stop offset="0" stop-color="#f2f7fb"/>
      <stop offset="1" stop-color="#eef6ed"/>
    </linearGradient>
    <filter id="shadow" x="-20%" y="-20%" width="140%" height="140%">
      <feDropShadow dx="0" dy="18" stdDeviation="20" flood-color="#10202f" flood-opacity="0.16"/>
    </filter>
  </defs>
  <rect width="1200" height="750" fill="url(#cabBg)"/>
  <rect x="80" y="70" width="1040" height="610" rx="22" fill="#ffffff" filter="url(#shadow)"/>
  <rect x="80" y="70" width="1040" height="74" rx="22" fill="#17324d"/>
  <text x="124" y="116" font-family="Segoe UI, Arial, sans-serif" font-size="26" font-weight="800" fill="#ffffff">Online Cabinet Configurator</text>
  <rect x="124" y="184" width="638" height="432" rx="18" fill="#f5f7f8" stroke="#d7e1e5"/>
  <rect x="214" y="270" width="456" height="260" rx="14" fill="#d9b88f" stroke="#a3703e" stroke-width="6"/>
  <rect x="236" y="292" width="126" height="216" rx="8" fill="#efcfaa" stroke="#9a6a3d" stroke-width="4"/>
  <rect x="382" y="292" width="126" height="216" rx="8" fill="#efcfaa" stroke="#9a6a3d" stroke-width="4"/>
  <rect x="528" y="292" width="120" height="216" rx="8" fill="#efcfaa" stroke="#9a6a3d" stroke-width="4"/>
  <circle cx="342" cy="400" r="7" fill="#17324d"/>
  <circle cx="488" cy="400" r="7" fill="#17324d"/>
  <circle cx="548" cy="400" r="7" fill="#17324d"/>
  <rect x="224" y="542" width="436" height="18" rx="9" fill="#81909b"/>
  <rect x="806" y="184" width="270" height="432" rx="18" fill="#ffffff" stroke="#d7e1e5"/>
  <text x="838" y="228" font-family="Segoe UI, Arial, sans-serif" font-size="21" font-weight="800" fill="#17324d">Configuration</text>
  <text x="838" y="274" font-family="Segoe UI, Arial, sans-serif" font-size="15" font-weight="700" fill="#637282">Layout</text>
  <rect x="838" y="292" width="82" height="36" rx="18" fill="#0f766e"/>
  <text x="861" y="315" font-family="Segoe UI, Arial, sans-serif" font-size="14" font-weight="700" fill="#ffffff">Base</text>
  <rect x="932" y="292" width="88" height="36" rx="18" fill="#edf2f4"/>
  <text x="955" y="315" font-family="Segoe UI, Arial, sans-serif" font-size="14" font-weight="700" fill="#17324d">Wall</text>
  <text x="838" y="374" font-family="Segoe UI, Arial, sans-serif" font-size="15" font-weight="700" fill="#637282">Finish</text>
  <circle cx="858" cy="412" r="18" fill="#d9b88f" stroke="#17324d" stroke-width="3"/>
  <circle cx="914" cy="412" r="18" fill="#ffffff" stroke="#d1dae0" stroke-width="3"/>
  <circle cx="970" cy="412" r="18" fill="#475569"/>
  <rect x="838" y="488" width="186" height="14" rx="7" fill="#17324d" opacity="0.28"/>
  <rect x="838" y="526" width="150" height="14" rx="7" fill="#17324d" opacity="0.48"/>
  <rect x="838" y="558" width="174" height="40" rx="20" fill="#f59e0b"/>
  <text x="886" y="583" font-family="Segoe UI, Arial, sans-serif" font-size="15" font-weight="800" fill="#ffffff">Quote Ready</text>
</svg>